# This file uses centimeters as units for non-parametric coordinates.

g default
v 59.956299 51.942322 0.000023
v 59.443359 51.942322 -7.825836
v 59.443359 51.942322 7.825882
v 57.913330 51.942322 15.517853
v 55.392334 51.942322 22.944305
v 51.923706 51.942322 29.978149
v 47.566528 51.942322 36.499084
v 42.395508 51.942322 42.395508
v 36.499084 51.942322 47.566528
v 29.978149 51.942322 51.923706
v 22.944305 51.942322 55.392334
v 15.517853 51.942322 57.913330
v 7.825882 51.942322 59.443359
v 0.000020 51.942322 59.956299
v -7.825851 51.942322 59.443359
v -15.517792 51.942322 57.913330
v -22.944244 51.942322 55.392456
v -29.978149 51.942322 51.923706
v -36.499084 51.942322 47.566528
v -42.395508 51.942322 42.395508
v -47.566528 51.942322 36.499084
v -51.923706 51.942322 29.978149
v -55.392334 51.942322 22.944305
v -57.913330 51.942322 15.517853
v -59.443359 51.942322 7.825882
v -59.956299 51.942322 0.000014
v -59.443359 51.942322 -7.825851
v -57.913330 51.942322 -15.517822
v -55.392334 51.942322 -22.944275
v -51.923706 51.942322 -29.978149
v -47.566528 51.942322 -36.499084
v -42.395508 51.942322 -42.395508
v -36.499084 51.942322 -47.566528
v -29.978149 51.942322 -51.923706
v -22.944244 51.942322 -55.392456
v -15.517792 51.942322 -57.913330
v -7.825836 51.942322 -59.443359
v 0.000032 51.942322 -59.956299
v 7.825897 51.942322 -59.443359
v 15.517883 51.942322 -57.913330
v 22.944336 51.942322 -55.392456
v 29.978210 51.942322 -51.923706
v 36.499146 51.942322 -47.566528
v 42.395569 51.942322 -42.395508
v 47.566589 51.942322 -36.499084
v 51.923706 51.942322 -29.978149
v 55.392456 51.942322 -22.944275
v 57.913452 51.942322 -15.517822
v 59.443359 -51.942383 -7.825836
v 59.956299 -51.942383 0.000023
v 59.443359 -51.942383 7.825882
v 57.913330 -51.942383 15.517853
v 55.392334 -51.942383 22.944305
v 51.923706 -51.942383 29.978149
v 47.566528 -51.942383 36.499084
v 42.395508 -51.942383 42.395508
v 36.499084 -51.942383 47.566528
v 29.978149 -51.942383 51.923706
v 22.944305 -51.942383 55.392334
v 15.517853 -51.942383 57.913330
v 7.825882 -51.942383 59.443359
v 0.000020 -51.942383 59.956299
v -7.825851 -51.942383 59.443359
v -15.517822 -51.942383 57.913330
v -22.944244 -51.942383 55.392456
v -29.978149 -51.942383 51.923706
v -36.499084 -51.942383 47.566528
v -42.395508 -51.942383 42.395508
v -47.566528 -51.942383 36.499084
v -51.923706 -51.942383 29.978149
v -55.392334 -51.942383 22.944305
v -57.913330 -51.942383 15.517853
v -59.443359 -51.942383 7.825882
v -59.956299 -51.942383 0.000014
v -59.443359 -51.942383 -7.825851
v -57.913330 -51.942383 -15.517822
v -55.392334 -51.942383 -22.944275
v -51.923706 -51.942383 -29.978149
v -47.566528 -51.942383 -36.499084
v -42.395508 -51.942383 -42.395508
v -36.499084 -51.942383 -47.566528
v -29.978149 -51.942383 -51.923706
v -22.944244 -51.942383 -55.392456
v -15.517792 -51.942383 -57.913330
v -7.825836 -51.942383 -59.443359
v 0.000032 -51.942383 -59.956299
v 7.825897 -51.942383 -59.443359
v 15.517883 -51.942383 -57.913330
v 22.944336 -51.942383 -55.392456
v 29.978210 -51.942383 -51.923706
v 36.499146 -51.942383 -47.566528
v 42.395569 -51.942383 -42.395508
v 47.566589 -51.942383 -36.499084
v 51.923706 -51.942383 -29.978149
v 55.392456 -51.942383 -22.944275
v 57.913452 -51.942383 -15.517822
vt 0.012886 0.954310
vt 0.988753 0.954325
vt 0.988754 0.995683
vt 0.012887 0.995668
vt 0.012889 0.912957
vt 0.988756 0.912972
vt 0.012891 0.871600
vt 0.988759 0.871615
vt 0.012895 0.830245
vt 0.988761 0.830261
vt 0.012895 0.788889
vt 0.988761 0.788904
vt 0.012897 0.747533
vt 0.988764 0.747547
vt 0.012900 0.706178
vt 0.988767 0.706193
vt 0.012901 0.664824
vt 0.988768 0.664839
vt 0.012903 0.623466
vt 0.988770 0.623481
vt 0.012909 0.582109
vt 0.988776 0.582124
vt 0.012909 0.540754
vt 0.988775 0.540769
vt 0.012912 0.499401
vt 0.988779 0.499416
vt 0.012913 0.458044
vt 0.988780 0.458058
vt 0.012916 0.416689
vt 0.988783 0.416705
vt 0.012917 0.375332
vt 0.988783 0.375347
vt 0.012920 0.333978
vt 0.988787 0.333993
vt 0.012921 0.292620
vt 0.988788 0.292635
vt 0.012923 0.251264
vt 0.988790 0.251278
vt 0.012926 0.209910
vt 0.988793 0.209925
vt 0.012928 0.168551
vt 0.988795 0.168566
vt 0.012930 0.127197
vt 0.988797 0.127212
vt 0.012932 0.085840
vt 0.988798 0.085855
vt 0.012936 0.044484
vt 0.988802 0.044498
vt 0.012936 0.003132
vt 0.988802 0.003147
vt 0.012766 0.044634
vt 0.989025 0.044635
vt 0.989025 0.003296
vt 0.012766 0.003296
vt 0.012766 0.085974
vt 0.989025 0.085974
vt 0.012766 0.127312
vt 0.989025 0.127313
vt 0.012766 0.168652
vt 0.989025 0.168653
vt 0.012766 0.209991
vt 0.989025 0.209992
vt 0.012766 0.251331
vt 0.989025 0.251331
vt 0.012765 0.292670
vt 0.989025 0.292670
vt 0.012765 0.334009
vt 0.989025 0.334009
vt 0.012765 0.375348
vt 0.989024 0.375349
vt 0.012765 0.416687
vt 0.989024 0.416687
vt 0.012765 0.458026
vt 0.989024 0.458027
vt 0.012765 0.499365
vt 0.989024 0.499366
vt 0.012765 0.540704
vt 0.989024 0.540705
vt 0.012765 0.582044
vt 0.989024 0.582044
vt 0.012765 0.623383
vt 0.989024 0.623383
vt 0.012765 0.664722
vt 0.989024 0.664722
vt 0.012764 0.706061
vt 0.989024 0.706062
vt 0.012764 0.747400
vt 0.989024 0.747401
vt 0.012764 0.788739
vt 0.989024 0.788740
vt 0.012764 0.830078
vt 0.989024 0.830079
vt 0.012764 0.871418
vt 0.989024 0.871418
vt 0.012764 0.912757
vt 0.989023 0.912758
vt 0.012764 0.954096
vt 0.989023 0.954097
vt 0.012764 0.995435
vt 0.989023 0.995436
vn -1.000000 0.000000 0.000000
vn -1.000000 0.000000 0.000000
vn -0.991446 0.000000 0.130519
vn -0.991446 0.000000 0.130519
vn -0.991445 0.000000 -0.130527
vn -0.991445 0.000000 -0.130527
vn -0.965925 0.000000 -0.258822
vn -0.965925 0.000000 -0.258822
vn -0.923880 0.000000 -0.382682
vn -0.923880 0.000000 -0.382682
vn -0.866027 0.000000 -0.499998
vn -0.866027 0.000000 -0.499998
vn -0.793353 0.000000 -0.608763
vn -0.793353 0.000000 -0.608763
vn -0.707107 0.000000 -0.707107
vn -0.707107 0.000000 -0.707107
vn -0.608763 0.000000 -0.793352
vn -0.608763 0.000000 -0.793352
vn -0.499998 0.000000 -0.866027
vn -0.499998 0.000000 -0.866027
vn -0.382682 0.000000 -0.923880
vn -0.382682 0.000000 -0.923880
vn -0.258823 0.000000 -0.965925
vn -0.258823 0.000000 -0.965925
vn -0.130527 0.000000 -0.991445
vn -0.130527 0.000000 -0.991445
vn 0.000000 0.000000 -1.000000
vn 0.000000 0.000000 -1.000000
vn 0.130527 -0.000000 -0.991445
vn 0.130527 -0.000000 -0.991445
vn 0.258816 -0.000000 -0.965927
vn 0.258816 -0.000000 -0.965927
vn 0.382681 -0.000000 -0.923881
vn 0.382681 -0.000000 -0.923881
vn 0.500002 0.000000 -0.866024
vn 0.500002 0.000000 -0.866024
vn 0.608763 0.000000 -0.793352
vn 0.608763 0.000000 -0.793352
vn 0.707107 0.000000 -0.707107
vn 0.707107 0.000000 -0.707107
vn 0.793353 0.000000 -0.608763
vn 0.793353 0.000000 -0.608763
vn 0.866027 0.000000 -0.499998
vn 0.866027 0.000000 -0.499998
vn 0.923880 0.000000 -0.382682
vn 0.923880 0.000000 -0.382682
vn 0.965925 0.000000 -0.258822
vn 0.965925 0.000000 -0.258822
vn 0.991445 0.000000 -0.130527
vn 0.991445 0.000000 -0.130527
vn 1.000000 0.000000 0.000000
vn 1.000000 0.000000 0.000000
vn 0.991445 0.000000 0.130527
vn 0.991445 0.000000 0.130527
vn 0.965925 0.000000 0.258822
vn 0.965925 0.000000 0.258822
vn 0.923881 0.000000 0.382681
vn 0.923881 0.000000 0.382681
vn 0.866027 0.000000 0.499997
vn 0.866027 0.000000 0.499997
vn 0.793353 0.000000 0.608763
vn 0.793353 0.000000 0.608763
vn 0.707107 0.000000 0.707107
vn 0.707107 0.000000 0.707107
vn 0.608763 0.000000 0.793352
vn 0.608763 0.000000 0.793352
vn 0.500002 0.000000 0.866024
vn 0.500002 0.000000 0.866024
vn 0.382680 0.000000 0.923881
vn 0.382680 0.000000 0.923881
vn 0.258815 0.000000 0.965927
vn 0.258815 0.000000 0.965927
vn 0.130527 0.000000 0.991445
vn 0.130527 0.000000 0.991445
vn 0.000000 0.000000 1.000000
vn 0.000000 0.000000 1.000000
vn -0.130527 0.000000 0.991445
vn -0.130527 0.000000 0.991445
vn -0.258815 0.000000 0.965927
vn -0.258815 0.000000 0.965927
vn -0.382681 0.000000 0.923881
vn -0.382681 0.000000 0.923881
vn -0.500003 0.000000 0.866024
vn -0.500003 0.000000 0.866024
vn -0.608763 0.000000 0.793352
vn -0.608763 0.000000 0.793352
vn -0.707107 0.000000 0.707107
vn -0.707107 0.000000 0.707107
vn -0.793354 0.000000 0.608760
vn -0.793354 0.000000 0.608760
vn -0.866026 0.000000 0.500000
vn -0.866026 0.000000 0.500000
vn -0.923878 0.000000 0.382688
vn -0.923878 0.000000 0.382688
vn -0.965927 0.000000 0.258815
vn -0.965927 0.000000 0.258815
s 1
g SM_backdrop_lyr_01 SM_PLATFORMS_RDY
f 50/1/1 1/2/2 2/3/3 49/4/4
f 51/5/5 3/6/6 1/2/2 50/1/1
f 52/7/7 4/8/8 3/6/6 51/5/5
f 53/9/9 5/10/10 4/8/8 52/7/7
f 54/11/11 6/12/12 5/10/10 53/9/9
f 55/13/13 7/14/14 6/12/12 54/11/11
f 56/15/15 8/16/16 7/14/14 55/13/13
f 57/17/17 9/18/18 8/16/16 56/15/15
f 58/19/19 10/20/20 9/18/18 57/17/17
f 59/21/21 11/22/22 10/20/20 58/19/19
f 60/23/23 12/24/24 11/22/22 59/21/21
f 61/25/25 13/26/26 12/24/24 60/23/23
f 62/27/27 14/28/28 13/26/26 61/25/25
f 63/29/29 15/30/30 14/28/28 62/27/27
f 64/31/31 16/32/32 15/30/30 63/29/29
f 65/33/33 17/34/34 16/32/32 64/31/31
f 66/35/35 18/36/36 17/34/34 65/33/33
f 67/37/37 19/38/38 18/36/36 66/35/35
f 68/39/39 20/40/40 19/38/38 67/37/37
f 69/41/41 21/42/42 20/40/40 68/39/39
f 70/43/43 22/44/44 21/42/42 69/41/41
f 71/45/45 23/46/46 22/44/44 70/43/43
f 72/47/47 24/48/48 23/46/46 71/45/45
f 73/49/49 25/50/50 24/48/48 72/47/47
f 74/51/51 26/52/52 25/53/50 73/54/49
f 75/55/53 27/56/54 26/52/52 74/51/51
f 76/57/55 28/58/56 27/56/54 75/55/53
f 77/59/57 29/60/58 28/58/56 76/57/55
f 78/61/59 30/62/60 29/60/58 77/59/57
f 79/63/61 31/64/62 30/62/60 78/61/59
f 80/65/63 32/66/64 31/64/62 79/63/61
f 81/67/65 33/68/66 32/66/64 80/65/63
f 82/69/67 34/70/68 33/68/66 81/67/65
f 83/71/69 35/72/70 34/70/68 82/69/67
f 84/73/71 36/74/72 35/72/70 83/71/69
f 85/75/73 37/76/74 36/74/72 84/73/71
f 86/77/75 38/78/76 37/76/74 85/75/73
f 87/79/77 39/80/78 38/78/76 86/77/75
f 88/81/79 40/82/80 39/80/78 87/79/77
f 89/83/81 41/84/82 40/82/80 88/81/79
f 90/85/83 42/86/84 41/84/82 89/83/81
f 91/87/85 43/88/86 42/86/84 90/85/83
f 92/89/87 44/90/88 43/88/86 91/87/85
f 93/91/89 45/92/90 44/90/88 92/89/87
f 94/93/91 46/94/92 45/92/90 93/91/89
f 95/95/93 47/96/94 46/94/92 94/93/91
f 96/97/95 48/98/96 47/96/94 95/95/93
f 49/99/4 2/100/3 48/98/96 96/97/95
