# This file uses centimeters as units for non-parametric coordinates.

g default
v -17.319864 -0.185191 19.077347
v -18.073263 -0.185191 18.032642
v -19.112614 -0.185191 17.271883
v -20.336187 -0.185191 16.869534
v -21.624201 -0.185191 16.864985
v -22.850586 -0.185191 17.258675
v -23.895288 -0.185191 18.012074
v -24.656050 -0.185191 19.051424
v -25.058397 -0.185191 20.274996
v -25.062948 -0.185191 21.563011
v -24.669254 -0.185191 22.789396
v -23.915859 -0.185191 23.834101
v -22.876511 -0.185191 24.594858
v -21.652939 -0.185191 24.997206
v -20.364922 -0.185191 25.001755
v -19.138538 -0.185191 24.608067
v -18.093836 -0.185191 23.854670
v -17.333076 -0.185191 22.815317
v -16.930729 -0.185191 21.591745
v -16.926178 -0.185191 20.303728
v -17.319864 262.579010 19.077347
v -18.073263 262.579010 18.032642
v -19.112614 262.579010 17.271883
v -20.336187 262.579010 16.869534
v -21.624201 262.579010 16.864985
v -22.850586 262.579010 17.258675
v -23.895288 262.579010 18.012074
v -24.656050 262.579010 19.051424
v -25.058397 262.579010 20.274996
v -25.062948 262.579010 21.563011
v -24.669254 262.579010 22.789396
v -23.915859 262.579010 23.834101
v -22.876511 262.579010 24.594858
v -21.652939 262.579010 24.997206
v -20.364922 262.579010 25.001755
v -19.138538 262.579010 24.608067
v -18.093836 262.579010 23.854670
v -17.333076 262.579010 22.815317
v -16.930729 262.579010 21.591745
v -16.926178 262.579010 20.303728
vt 0.375000 0.312500
vt 0.387500 0.312500
vt 0.387500 0.688440
vt 0.375000 0.688440
vt 0.400000 0.312500
vt 0.400000 0.688440
vt 0.412500 0.312500
vt 0.412500 0.688440
vt 0.425000 0.312500
vt 0.425000 0.688440
vt 0.437500 0.312500
vt 0.437500 0.688440
vt 0.450000 0.312500
vt 0.450000 0.688440
vt 0.462500 0.312500
vt 0.462500 0.688440
vt 0.475000 0.312500
vt 0.475000 0.688440
vt 0.487500 0.312500
vt 0.487500 0.688440
vt 0.500000 0.312500
vt 0.500000 0.688440
vt 0.512500 0.312500
vt 0.512500 0.688440
vt 0.525000 0.312500
vt 0.525000 0.688440
vt 0.537500 0.312500
vt 0.537500 0.688440
vt 0.550000 0.312500
vt 0.550000 0.688440
vt 0.562500 0.312500
vt 0.562500 0.688440
vt 0.575000 0.312500
vt 0.575000 0.688440
vt 0.587500 0.312500
vt 0.587500 0.688440
vt 0.600000 0.312500
vt 0.600000 0.688440
vt 0.612500 0.312500
vt 0.612500 0.688440
vt 0.625000 0.312500
vt 0.625000 0.688440
vt 0.626409 0.064408
vt 0.648603 0.107966
vt 0.500000 0.150000
vt 0.591842 0.029841
vt 0.548284 0.007647
vt 0.500000 -0.000000
vt 0.451716 0.007647
vt 0.408159 0.029841
vt 0.373591 0.064409
vt 0.351397 0.107966
vt 0.343750 0.156250
vt 0.351397 0.204534
vt 0.373591 0.248091
vt 0.408159 0.282659
vt 0.451716 0.304853
vt 0.500000 0.312500
vt 0.548284 0.304853
vt 0.591841 0.282659
vt 0.626409 0.248091
vt 0.648603 0.204534
vt 0.656250 0.156250
vn 0.892605 0.000000 -0.450839
vn 0.709601 0.000000 -0.704604
vn 0.709601 0.000000 -0.704604
vn 0.892605 0.000000 -0.450839
vn 0.457136 0.000000 -0.889397
vn 0.457136 0.000000 -0.889397
vn 0.159923 0.000000 -0.987130
vn 0.159923 0.000000 -0.987130
vn -0.152944 0.000000 -0.988235
vn -0.152944 0.000000 -0.988235
vn -0.450840 0.000000 -0.892605
vn -0.450840 0.000000 -0.892605
vn -0.704604 0.000000 -0.709601
vn -0.704604 0.000000 -0.709601
vn -0.889396 0.000000 -0.457136
vn -0.889396 0.000000 -0.457136
vn -0.987130 0.000000 -0.159923
vn -0.987130 0.000000 -0.159923
vn -0.988235 0.000000 0.152945
vn -0.988235 0.000000 0.152945
vn -0.892605 0.000000 0.450840
vn -0.892605 0.000000 0.450840
vn -0.709602 0.000000 0.704603
vn -0.709602 0.000000 0.704603
vn -0.457136 0.000000 0.889397
vn -0.457136 0.000000 0.889397
vn -0.159923 0.000000 0.987130
vn -0.159923 0.000000 0.987130
vn 0.152944 0.000000 0.988235
vn 0.152944 0.000000 0.988235
vn 0.450839 0.000000 0.892605
vn 0.450839 0.000000 0.892605
vn 0.704604 0.000000 0.709601
vn 0.704604 0.000000 0.709601
vn 0.889397 0.000000 0.457136
vn 0.889397 0.000000 0.457136
vn 0.987130 0.000000 0.159923
vn 0.987130 0.000000 0.159923
vn 0.988235 0.000000 -0.152942
vn 0.988235 0.000000 -0.152942
s 1
g seaweed_base
f 1/1/1 2/2/2 22/3/3 21/4/4
f 2/2/2 3/5/5 23/6/6 22/3/3
f 3/5/5 4/7/7 24/8/8 23/6/6
f 4/7/7 5/9/9 25/10/10 24/8/8
f 5/9/9 6/11/11 26/12/12 25/10/10
f 6/11/11 7/13/13 27/14/14 26/12/12
f 7/13/13 8/15/15 28/16/16 27/14/14
f 8/15/15 9/17/17 29/18/18 28/16/16
f 9/17/17 10/19/19 30/20/20 29/18/18
f 10/19/19 11/21/21 31/22/22 30/20/20
f 11/21/21 12/23/23 32/24/24 31/22/22
f 12/23/23 13/25/25 33/26/26 32/24/24
f 13/25/25 14/27/27 34/28/28 33/26/26
f 14/27/27 15/29/29 35/30/30 34/28/28
f 15/29/29 16/31/31 36/32/32 35/30/30
f 16/31/31 17/33/33 37/34/34 36/32/32
f 17/33/33 18/35/35 38/36/36 37/34/34
f 18/35/35 19/37/37 39/38/38 38/36/36
f 19/37/37 20/39/39 40/40/40 39/38/38
f 20/39/39 1/41/1 21/42/4 40/40/40
