# This file uses centimeters as units for non-parametric coordinates.

g default
v 25.382011 -128.000000 -3.341591
v 24.728701 -128.000000 -6.626019
v 23.652275 -128.000000 -9.797073
v 22.171148 -128.000000 -12.800497
v 20.310669 -128.000000 -15.584900
v 18.102669 -128.000000 -18.102642
v 15.584928 -128.000000 -20.310642
v 12.800525 -128.000000 -22.171124
v 9.797099 -128.000000 -23.652250
v 6.626045 -128.000000 -24.728674
v 3.341617 -128.000000 -25.381990
v 0.000014 -128.000000 -25.601009
v -3.341590 -128.000000 -25.381990
v -6.626017 -128.000000 -24.728674
v -9.797071 -128.000000 -23.652250
v -12.800495 -128.000000 -22.171124
v -15.584899 -128.000000 -20.310646
v -18.102642 -128.000000 -18.102646
v -20.310640 -128.000000 -15.584904
v -22.171118 -128.000000 -12.800501
v -23.652243 -128.000000 -9.797077
v -24.728672 -128.000000 -6.626024
v -25.381983 -128.000000 -3.341597
v -25.601000 -128.000000 0.000006
v -25.381981 -128.000000 3.341609
v -24.728670 -128.000000 6.626035
v -23.652237 -128.000000 9.797089
v -22.171114 -128.000000 12.800511
v -20.310637 -128.000000 15.584914
v -18.102638 -128.000000 18.102654
v -15.584896 -128.000000 20.310654
v -12.800494 -128.000000 22.171129
v -9.797071 -128.000000 23.652252
v -6.626018 -128.000000 24.728680
v -3.341593 -128.000000 25.381992
v 0.000008 -128.000000 25.601009
v 3.341609 -128.000000 25.381990
v 6.626035 -128.000000 24.728674
v 9.797087 -128.000000 23.652248
v 12.800508 -128.000000 22.171124
v 15.584908 -128.000000 20.310646
v 18.102648 -128.000000 18.102648
v 20.310644 -128.000000 15.584909
v 22.171120 -128.000000 12.800508
v 23.652245 -128.000000 9.797087
v 24.728670 -128.000000 6.626034
v 25.381983 -128.000000 3.341610
v 25.601000 -128.000000 0.000010
v 25.382011 128.000000 -3.341591
v 24.728701 128.000000 -6.626019
v 23.652275 128.000000 -9.797073
v 22.171148 128.000000 -12.800497
v 20.310669 128.000000 -15.584900
v 18.102669 128.000000 -18.102642
v 15.584928 128.000000 -20.310642
v 12.800525 128.000000 -22.171124
v 9.797099 128.000000 -23.652250
v 6.626045 128.000000 -24.728674
v 3.341617 128.000000 -25.381990
v 0.000014 128.000000 -25.601009
v -3.341590 128.000000 -25.381990
v -6.626017 128.000000 -24.728674
v -9.797071 128.000000 -23.652250
v -12.800495 128.000000 -22.171124
v -15.584899 128.000000 -20.310646
v -18.102642 128.000000 -18.102646
v -20.310640 128.000000 -15.584904
v -22.171118 128.000000 -12.800501
v -23.652243 128.000000 -9.797077
v -24.728672 128.000000 -6.626024
v -25.381983 128.000000 -3.341597
v -25.601000 128.000000 0.000006
v -25.381981 128.000000 3.341609
v -24.728670 128.000000 6.626035
v -23.652237 128.000000 9.797089
v -22.171114 128.000000 12.800511
v -20.310637 128.000000 15.584914
v -18.102638 128.000000 18.102654
v -15.584896 128.000000 20.310654
v -12.800494 128.000000 22.171129
v -9.797071 128.000000 23.652252
v -6.626018 128.000000 24.728680
v -3.341593 128.000000 25.381992
v 0.000008 128.000000 25.601009
v 3.341609 128.000000 25.381990
v 6.626035 128.000000 24.728674
v 9.797087 128.000000 23.652248
v 12.800508 128.000000 22.171124
v 15.584908 128.000000 20.310646
v 18.102648 128.000000 18.102648
v 20.310644 128.000000 15.584909
v 22.171120 128.000000 12.800508
v 23.652245 128.000000 9.797087
v 24.728670 128.000000 6.626034
v 25.381983 128.000000 3.341610
v 25.601000 128.000000 0.000010
v 0.000010 -128.000000 0.000010
v 0.000010 128.000000 0.000010
vt 0.762253 0.503863
vt 0.766185 0.523919
vt 0.611218 0.543887
vt 0.755736 0.484491
vt 0.746748 0.466136
vt 0.735439 0.449111
vt 0.722006 0.433707
vt 0.706677 0.420189
vt 0.689714 0.408788
vt 0.671409 0.399698
vt 0.652074 0.393075
vt 0.632039 0.389032
vt 0.611649 0.387639
vt 0.591250 0.388920
vt 0.571194 0.392852
vt 0.551822 0.399368
vt 0.533467 0.408357
vt 0.516442 0.419665
vt 0.501039 0.433099
vt 0.487521 0.448428
vt 0.476119 0.465390
vt 0.467029 0.483695
vt 0.460406 0.503031
vt 0.456363 0.523065
vt 0.454971 0.543456
vt 0.456251 0.563854
vt 0.460183 0.583910
vt 0.466699 0.603282
vt 0.475689 0.621637
vt 0.486996 0.638662
vt 0.500430 0.654066
vt 0.515759 0.667584
vt 0.532722 0.678985
vt 0.551027 0.688075
vt 0.570362 0.694698
vt 0.590397 0.698741
vt 0.610787 0.700134
vt 0.631185 0.698853
vt 0.651242 0.694921
vt 0.670613 0.688405
vt 0.688969 0.679416
vt 0.705994 0.668108
vt 0.721397 0.654675
vt 0.734915 0.639345
vt 0.746317 0.622383
vt 0.755407 0.604078
vt 0.762030 0.584742
vt 0.766072 0.564708
vt 0.767465 0.544317
vt 0.767000 0.564978
vt 0.762979 0.585017
vt 0.612121 0.544326
vt 0.756378 0.604360
vt 0.747307 0.622676
vt 0.735924 0.639651
vt 0.722423 0.654995
vt 0.707034 0.668446
vt 0.690021 0.679772
vt 0.671675 0.688782
vt 0.652311 0.695319
vt 0.632258 0.699273
vt 0.611861 0.700576
vt 0.591469 0.699205
vt 0.571430 0.695185
vt 0.552087 0.688583
vt 0.533771 0.679513
vt 0.516796 0.668130
vt 0.501452 0.654628
vt 0.488002 0.639239
vt 0.476675 0.622226
vt 0.467666 0.603881
vt 0.461128 0.584516
vt 0.457174 0.564464
vt 0.455871 0.544067
vt 0.457242 0.523674
vt 0.461262 0.503635
vt 0.467864 0.484292
vt 0.476934 0.465977
vt 0.488318 0.449001
vt 0.501819 0.433657
vt 0.517208 0.420207
vt 0.534221 0.408880
vt 0.552567 0.399871
vt 0.571931 0.393333
vt 0.591984 0.389379
vt 0.612380 0.388077
vt 0.632773 0.389447
vt 0.652812 0.393468
vt 0.672155 0.400070
vt 0.690471 0.409140
vt 0.707446 0.420523
vt 0.722790 0.434025
vt 0.736240 0.449413
vt 0.747567 0.466426
vt 0.756576 0.484772
vt 0.763114 0.504137
vt 0.767068 0.524189
vt 0.768371 0.544586
vt 0.012139 0.916654
vt 0.011961 0.916877
vt 0.011793 0.913655
vt 0.011634 0.911540
vt 0.011482 0.909425
vt 0.011343 0.907309
vt 0.011214 0.905193
vt 0.011098 0.903077
vt 0.010983 0.900961
vt 0.010886 0.898845
vt 0.010793 0.896729
vt 0.010709 0.894613
vt 0.010631 0.892496
vt 0.010560 0.890380
vt 0.010498 0.888264
vt 0.010437 0.886147
vt 0.010382 0.884031
vt 0.010333 0.881915
vt 0.010285 0.879798
vt 0.010249 0.877683
vt 0.010213 0.875566
vt 0.010178 0.873450
vt 0.010158 0.871334
vt 0.010129 0.869218
vt 0.010107 0.866950
vt 0.010093 0.869066
vt 0.010084 0.871182
vt 0.010071 0.873299
vt 0.010071 0.875415
vt 0.010067 0.877531
vt 0.010068 0.879647
vt 0.010080 0.881763
vt 0.010090 0.883879
vt 0.010107 0.885996
vt 0.010139 0.888112
vt 0.010168 0.890228
vt 0.010204 0.892344
vt 0.010246 0.894461
vt 0.010296 0.896577
vt 0.010359 0.898693
vt 0.010427 0.900809
vt 0.010502 0.902925
vt 0.010594 0.905041
vt 0.010693 0.907157
vt 0.010808 0.909273
vt 0.010929 0.911389
vt 0.011065 0.913504
vt 0.011219 0.915619
vt 0.011371 0.916503
vt 2.169865 0.916596
vt 2.169899 0.915713
vt 2.169930 0.913599
vt 2.169957 0.911485
vt 2.169990 0.909372
vt 2.170020 0.907258
vt 2.170048 0.905145
vt 2.170079 0.903031
vt 2.170110 0.900917
vt 2.170138 0.898804
vt 2.170172 0.896690
vt 2.170201 0.894577
vt 2.170228 0.892463
vt 2.170261 0.890350
vt 2.170294 0.888236
vt 2.170319 0.886123
vt 2.170352 0.884010
vt 2.170384 0.881896
vt 2.170410 0.879783
vt 2.170443 0.877669
vt 2.170474 0.875556
vt 2.170500 0.873443
vt 2.170533 0.871329
vt 2.170565 0.869216
vt 2.170591 0.866949
vt 2.170624 0.869062
vt 2.170656 0.871175
vt 2.170682 0.873289
vt 2.170721 0.875402
vt 2.170746 0.877515
vt 2.170785 0.879628
vt 2.170811 0.881742
vt 2.170844 0.883855
vt 2.170876 0.885969
vt 2.170909 0.888082
vt 2.170941 0.890195
vt 2.170973 0.892309
vt 2.171005 0.894423
vt 2.171038 0.896536
vt 2.171070 0.898649
vt 2.171108 0.900763
vt 2.171134 0.902876
vt 2.171174 0.904990
vt 2.171206 0.907104
vt 2.171238 0.909217
vt 2.171271 0.911331
vt 2.171303 0.913445
vt 2.171342 0.916666
vt 2.171368 0.916442
vt 2.170591 0.867103
vt 0.010107 0.867101
vn 0.000000 -1.000000 0.000000
vn 0.000000 -1.000000 0.000000
vn 0.000000 -1.000000 0.000000
vn 0.000000 -1.000000 0.000000
vn 0.000000 -1.000000 0.000000
vn 0.000000 -1.000000 0.000000
vn 0.000000 -1.000000 -0.000001
vn 0.000000 -1.000000 -0.000001
vn 0.000000 -1.000000 0.000000
vn 0.000000 -1.000000 0.000000
vn 0.000000 -1.000000 0.000000
vn 0.000000 -1.000000 0.000000
vn 0.000000 -1.000000 0.000000
vn 0.000000 -1.000000 0.000000
vn 0.000000 -1.000000 0.000000
vn 0.000000 -1.000000 0.000000
vn 0.000000 -1.000000 0.000000
vn 0.000000 -1.000000 0.000003
vn 0.000000 -1.000000 0.000003
vn 0.000000 -1.000000 0.000000
vn 0.000000 -1.000000 0.000000
vn 0.000000 -1.000000 0.000000
vn 0.000000 -1.000000 0.000000
vn 0.000000 -1.000000 0.000000
vn 0.000000 -1.000000 0.000000
vn 0.000000 -1.000000 0.000000
vn 0.000000 -1.000000 0.000000
vn 0.000000 -1.000000 0.000000
vn 0.000000 -1.000000 0.000000
vn 0.000000 -1.000000 0.000000
vn 0.000000 -1.000000 -0.000001
vn 0.000000 -1.000000 -0.000001
vn 0.000000 -1.000000 0.000000
vn 0.000000 -1.000000 0.000000
vn 0.000000 -1.000000 0.000000
vn 0.000000 -1.000000 -0.000000
vn 0.000000 -1.000000 -0.000000
vn 0.000000 -1.000000 0.000000
vn 0.000000 -1.000000 0.000000
vn 0.000000 -1.000000 0.000000
vn 0.000000 -1.000000 0.000000
vn 0.000000 -1.000000 0.000000
vn 0.000000 -1.000000 0.000000
vn 0.000000 -1.000000 0.000000
vn 0.000000 -1.000000 0.000000
vn 0.000000 -1.000000 0.000000
vn 0.000000 -1.000000 0.000000
vn 0.000000 -1.000000 0.000000
vn 0.000000 -1.000000 0.000000
vn 0.000000 1.000000 0.000000
vn 0.000000 1.000000 0.000000
vn 0.000000 1.000000 -0.000000
vn 0.000000 1.000000 0.000000
vn 0.000000 1.000000 0.000000
vn 0.000000 1.000000 0.000000
vn 0.000000 1.000000 -0.000003
vn 0.000000 1.000000 -0.000003
vn 0.000000 1.000000 0.000000
vn 0.000000 1.000000 0.000000
vn 0.000000 1.000000 0.000000
vn 0.000000 1.000000 0.000000
vn 0.000000 1.000000 -0.000000
vn 0.000000 1.000000 -0.000000
vn 0.000000 1.000000 0.000000
vn 0.000000 1.000000 0.000000
vn 0.000000 1.000000 0.000000
vn 0.000000 1.000000 0.000001
vn 0.000000 1.000000 0.000001
vn 0.000000 1.000000 0.000000
vn 0.000000 1.000000 0.000000
vn 0.000000 1.000000 0.000000
vn 0.000000 1.000000 0.000000
vn 0.000000 1.000000 0.000000
vn 0.000000 1.000000 0.000000
vn 0.000000 1.000000 0.000000
vn 0.000000 1.000000 0.000000
vn 0.000000 1.000000 0.000000
vn 0.000000 1.000000 0.000000
vn 0.000000 1.000000 0.000000
vn 0.000000 1.000000 -0.000003
vn 0.000000 1.000000 -0.000003
vn 0.000000 1.000000 0.000000
vn 0.000000 1.000000 0.000000
vn 0.000000 1.000000 0.000000
vn 0.000000 1.000000 0.000000
vn 0.000000 1.000000 0.000000
vn 0.000000 1.000000 0.000000
vn 0.000000 1.000000 0.000000
vn 0.000000 1.000000 0.000000
vn 0.000000 1.000000 0.000000
vn 0.000000 1.000000 0.000001
vn 0.000000 1.000000 0.000001
vn 0.000000 1.000000 0.000000
vn 0.000000 1.000000 0.000000
vn 0.000000 1.000000 0.000000
vn 0.000000 1.000000 0.000000
vn 0.000000 1.000000 0.000000
vn 0.000000 1.000000 0.000000
vn 0.991446 0.000000 -0.130521
vn 0.991446 0.000000 -0.130521
vn 0.965926 0.000000 -0.258818
vn 0.965926 0.000000 -0.258818
vn 0.923880 0.000000 -0.382683
vn 0.923880 0.000000 -0.382683
vn 0.866025 0.000000 -0.500000
vn 0.866025 0.000000 -0.500000
vn 0.793353 0.000000 -0.608761
vn 0.793353 0.000000 -0.608761
vn 0.707107 0.000000 -0.707107
vn 0.707107 0.000000 -0.707107
vn 0.608762 0.000000 -0.793353
vn 0.608762 0.000000 -0.793353
vn 0.500000 0.000000 -0.866025
vn 0.500000 0.000000 -0.866025
vn 0.382683 0.000000 -0.923880
vn 0.382683 0.000000 -0.923880
vn 0.258819 0.000000 -0.965926
vn 0.258819 0.000000 -0.965926
vn 0.130526 0.000000 -0.991445
vn 0.130526 0.000000 -0.991445
vn 0.000000 0.000000 -1.000000
vn 0.000000 0.000000 -1.000000
vn -0.130526 0.000000 -0.991445
vn -0.130526 0.000000 -0.991445
vn -0.258819 0.000000 -0.965926
vn -0.258819 0.000000 -0.965926
vn -0.382683 0.000000 -0.923880
vn -0.382683 0.000000 -0.923880
vn -0.500000 0.000000 -0.866025
vn -0.500000 0.000000 -0.866025
vn -0.608761 0.000000 -0.793354
vn -0.608761 0.000000 -0.793354
vn -0.707107 0.000000 -0.707107
vn -0.707107 0.000000 -0.707107
vn -0.793354 0.000000 -0.608761
vn -0.793354 0.000000 -0.608761
vn -0.866026 0.000000 -0.500000
vn -0.866026 0.000000 -0.500000
vn -0.923880 0.000000 -0.382684
vn -0.923880 0.000000 -0.382684
vn -0.965926 0.000000 -0.258819
vn -0.965926 0.000000 -0.258819
vn -0.991445 0.000000 -0.130525
vn -0.991445 0.000000 -0.130525
vn -1.000000 0.000000 0.000000
vn -1.000000 0.000000 0.000000
vn -0.991445 0.000000 0.130526
vn -0.991445 0.000000 0.130526
vn -0.965926 0.000000 0.258819
vn -0.965926 0.000000 0.258819
vn -0.923879 0.000000 0.382684
vn -0.923879 0.000000 0.382684
vn -0.866026 0.000000 0.500000
vn -0.866026 0.000000 0.500000
vn -0.793353 0.000000 0.608761
vn -0.793353 0.000000 0.608761
vn -0.707107 0.000000 0.707107
vn -0.707107 0.000000 0.707107
vn -0.608761 0.000000 0.793354
vn -0.608761 0.000000 0.793354
vn -0.500000 0.000000 0.866026
vn -0.500000 0.000000 0.866026
vn -0.382683 0.000000 0.923880
vn -0.382683 0.000000 0.923880
vn -0.258819 0.000000 0.965926
vn -0.258819 0.000000 0.965926
vn -0.130526 0.000000 0.991445
vn -0.130526 0.000000 0.991445
vn 0.000000 0.000000 1.000000
vn 0.000000 0.000000 1.000000
vn 0.130527 0.000000 0.991445
vn 0.130527 0.000000 0.991445
vn 0.258819 0.000000 0.965926
vn 0.258819 0.000000 0.965926
vn 0.382683 0.000000 0.923880
vn 0.382683 0.000000 0.923880
vn 0.500000 0.000000 0.866025
vn 0.500000 0.000000 0.866025
vn 0.608761 0.000000 0.793353
vn 0.608761 0.000000 0.793353
vn 0.707107 0.000000 0.707107
vn 0.707107 0.000000 0.707107
vn 0.793354 0.000000 0.608761
vn 0.793354 0.000000 0.608761
vn 0.866025 0.000000 0.500000
vn 0.866025 0.000000 0.500000
vn 0.923880 0.000000 0.382683
vn 0.923880 0.000000 0.382683
vn 0.965926 0.000000 0.258819
vn 0.965926 0.000000 0.258819
vn 0.991445 0.000000 0.130526
vn 0.991445 0.000000 0.130526
vn 1.000000 0.000000 0.000004
vn 1.000000 0.000000 0.000004
s 1
g SM_level_cylinder_01 SM_PLATFORMS_RDY
f 2/1/1 1/2/2 97/3/3
f 3/4/4 2/1/1 97/3/3
f 4/5/5 3/4/4 97/3/3
f 5/6/6 4/5/5 97/3/3
f 6/7/7 5/6/6 97/3/3
f 7/8/8 6/7/7 97/3/3
f 8/9/9 7/8/8 97/3/3
f 9/10/10 8/9/9 97/3/3
f 10/11/11 9/10/10 97/3/3
f 11/12/12 10/11/11 97/3/3
f 12/13/13 11/12/12 97/3/3
f 13/14/14 12/13/13 97/3/3
f 14/15/15 13/14/14 97/3/3
f 15/16/16 14/15/15 97/3/3
f 16/17/17 15/16/16 97/3/3
f 17/18/18 16/17/17 97/3/3
f 18/19/19 17/18/18 97/3/3
f 19/20/20 18/19/19 97/3/3
f 20/21/21 19/20/20 97/3/3
f 21/22/22 20/21/21 97/3/3
f 22/23/23 21/22/22 97/3/3
f 23/24/24 22/23/23 97/3/3
f 24/25/25 23/24/24 97/3/3
f 25/26/26 24/25/25 97/3/3
f 26/27/27 25/26/26 97/3/3
f 27/28/28 26/27/27 97/3/3
f 28/29/29 27/28/28 97/3/3
f 29/30/30 28/29/29 97/3/3
f 30/31/31 29/30/30 97/3/3
f 31/32/32 30/31/31 97/3/3
f 32/33/33 31/32/32 97/3/3
f 33/34/34 32/33/33 97/3/3
f 34/35/35 33/34/34 97/3/3
f 35/36/36 34/35/35 97/3/3
f 36/37/37 35/36/36 97/3/3
f 37/38/38 36/37/37 97/3/3
f 38/39/39 37/38/38 97/3/3
f 39/40/40 38/39/39 97/3/3
f 40/41/41 39/40/40 97/3/3
f 41/42/42 40/41/41 97/3/3
f 42/43/43 41/42/42 97/3/3
f 43/44/44 42/43/43 97/3/3
f 44/45/45 43/44/44 97/3/3
f 45/46/46 44/45/45 97/3/3
f 46/47/47 45/46/46 97/3/3
f 47/48/48 46/47/47 97/3/3
f 48/49/49 47/48/48 97/3/3
f 1/2/2 48/49/49 97/3/3
s 2
f 49/50/50 50/51/51 98/52/52
f 50/51/51 51/53/53 98/52/52
f 51/53/53 52/54/54 98/52/52
f 52/54/54 53/55/55 98/52/52
f 53/55/55 54/56/56 98/52/52
f 54/56/56 55/57/57 98/52/52
f 55/57/57 56/58/58 98/52/52
f 56/58/58 57/59/59 98/52/52
f 57/59/59 58/60/60 98/52/52
f 58/60/60 59/61/61 98/52/52
f 59/61/61 60/62/62 98/52/52
f 60/62/62 61/63/63 98/52/52
f 61/63/63 62/64/64 98/52/52
f 62/64/64 63/65/65 98/52/52
f 63/65/65 64/66/66 98/52/52
f 64/66/66 65/67/67 98/52/52
f 65/67/67 66/68/68 98/52/52
f 66/68/68 67/69/69 98/52/52
f 67/69/69 68/70/70 98/52/52
f 68/70/70 69/71/71 98/52/52
f 69/71/71 70/72/72 98/52/52
f 70/72/72 71/73/73 98/52/52
f 71/73/73 72/74/74 98/52/52
f 72/74/74 73/75/75 98/52/52
f 73/75/75 74/76/76 98/52/52
f 74/76/76 75/77/77 98/52/52
f 75/77/77 76/78/78 98/52/52
f 76/78/78 77/79/79 98/52/52
f 77/79/79 78/80/80 98/52/52
f 78/80/80 79/81/81 98/52/52
f 79/81/81 80/82/82 98/52/52
f 80/82/82 81/83/83 98/52/52
f 81/83/83 82/84/84 98/52/52
f 82/84/84 83/85/85 98/52/52
f 83/85/85 84/86/86 98/52/52
f 84/86/86 85/87/87 98/52/52
f 85/87/87 86/88/88 98/52/52
f 86/88/88 87/89/89 98/52/52
f 87/89/89 88/90/90 98/52/52
f 88/90/90 89/91/91 98/52/52
f 89/91/91 90/92/92 98/52/52
f 90/92/92 91/93/93 98/52/52
f 91/93/93 92/94/94 98/52/52
f 92/94/94 93/95/95 98/52/52
f 93/95/95 94/96/96 98/52/52
f 94/96/96 95/97/97 98/52/52
f 95/97/97 96/98/98 98/52/52
f 96/98/98 49/50/50 98/52/52
s 3
f 49/196/99 1/99/100 2/100/101 50/195/102
f 50/195/102 2/100/101 3/101/103 51/194/104
f 51/194/104 3/101/103 4/102/105 52/193/106
f 52/193/106 4/102/105 5/103/107 53/192/108
f 53/192/108 5/103/107 6/104/109 54/191/110
f 54/191/110 6/104/109 7/105/111 55/190/112
f 55/190/112 7/105/111 8/106/113 56/189/114
f 56/189/114 8/106/113 9/107/115 57/188/116
f 57/188/116 9/107/115 10/108/117 58/187/118
f 58/187/118 10/108/117 11/109/119 59/186/120
f 59/186/120 11/109/119 12/110/121 60/185/122
f 60/185/122 12/110/121 13/111/123 61/184/124
f 61/184/124 13/111/123 14/112/125 62/183/126
f 62/183/126 14/112/125 15/113/127 63/182/128
f 63/182/128 15/113/127 16/114/129 64/181/130
f 64/181/130 16/114/129 17/115/131 65/180/132
f 65/180/132 17/115/131 18/116/133 66/179/134
f 66/179/134 18/116/133 19/117/135 67/178/136
f 67/178/136 19/117/135 20/118/137 68/177/138
f 68/177/138 20/118/137 21/119/139 69/176/140
f 69/176/140 21/119/139 22/120/141 70/175/142
f 70/175/142 22/120/141 23/121/143 71/174/144
f 71/174/144 23/121/143 24/122/145 72/173/146
f 72/173/146 24/122/145 25/198/147 73/172/148
f 73/197/148 25/123/147 26/124/149 74/171/150
f 74/171/150 26/124/149 27/125/151 75/170/152
f 75/170/152 27/125/151 28/126/153 76/169/154
f 76/169/154 28/126/153 29/127/155 77/168/156
f 77/168/156 29/127/155 30/128/157 78/167/158
f 78/167/158 30/128/157 31/129/159 79/166/160
f 79/166/160 31/129/159 32/130/161 80/165/162
f 80/165/162 32/130/161 33/131/163 81/164/164
f 81/164/164 33/131/163 34/132/165 82/163/166
f 82/163/166 34/132/165 35/133/167 83/162/168
f 83/162/168 35/133/167 36/134/169 84/161/170
f 84/161/170 36/134/169 37/135/171 85/160/172
f 85/160/172 37/135/171 38/136/173 86/159/174
f 86/159/174 38/136/173 39/137/175 87/158/176
f 87/158/176 39/137/175 40/138/177 88/157/178
f 88/157/178 40/138/177 41/139/179 89/156/180
f 89/156/180 41/139/179 42/140/181 90/155/182
f 90/155/182 42/140/181 43/141/183 91/154/184
f 91/154/184 43/141/183 44/142/185 92/153/186
f 92/153/186 44/142/185 45/143/187 93/152/188
f 93/152/188 45/143/187 46/144/189 94/151/190
f 94/151/190 46/144/189 47/145/191 95/150/192
f 95/150/192 47/145/191 48/146/193 96/149/194
f 96/149/194 48/146/193 1/147/100 49/148/99
